<svg width="23" height="24" viewBox="0 0 23 24" fill="none" xmlns="http://www.w3.org/2000/svg">
<path d="M20.2982 2.06634H16.6616V0.248047H14.8433V2.06634H7.57007V0.248047H5.75177V2.06634H2.11517C1.11511 2.06634 0.296875 2.88458 0.296875 3.88464V22.0676C0.296875 23.0677 1.11511 23.8859 2.11517 23.8859H20.2982C21.2982 23.8859 22.1164 23.0677 22.1164 22.0676V3.88464C22.1164 2.88458 21.2982 2.06634 20.2982 2.06634ZM20.2982 22.0676H2.11517V9.33953H20.2982V22.0676ZM20.2982 7.52124H2.11517V3.88464H5.75177V5.70294H7.57007V3.88464H14.8433V5.70294H16.6616V3.88464H20.2982V7.52124Z" fill="#EDA92A"/>
</svg>
