<svg width="23" height="24" viewBox="0 0 23 24" fill="none" xmlns="http://www.w3.org/2000/svg">
<path d="M1.29688 12.2838C1.29687 13.622 1.56045 14.947 2.07255 16.1834C2.58464 17.4197 3.33524 18.543 4.28147 19.4892C5.2277 20.4355 6.35104 21.1861 7.58736 21.6982C8.82367 22.2103 10.1487 22.4738 11.4869 22.4738C12.8251 22.4738 14.1502 22.2103 15.3865 21.6982C16.6228 21.1861 17.7461 20.4355 18.6924 19.4892C19.6386 18.543 20.3892 17.4197 20.9013 16.1834C21.4134 14.947 21.677 13.622 21.677 12.2838C21.677 9.58122 20.6034 6.98935 18.6924 5.07834C16.7814 3.16734 14.1895 2.09375 11.4869 2.09375C8.78435 2.09375 6.19247 3.16734 4.28147 5.07834C2.37047 6.98935 1.29688 9.58122 1.29688 12.2838Z" stroke="#EDA92A" stroke-width="2.26446" stroke-linecap="round" stroke-linejoin="round"/>
<path d="M11.4863 6.62305V12.2842L14.883 15.6809" stroke="#EDA92A" stroke-width="2.26446" stroke-linecap="round" stroke-linejoin="round"/>
</svg>
