<svg width="35" height="39" viewBox="0 0 35 39" fill="none" xmlns="http://www.w3.org/2000/svg">
<path fill-rule="evenodd" clip-rule="evenodd" d="M5.73812 3.82151C5.23084 3.82151 4.74434 4.02303 4.38563 4.38173C4.02693 4.74043 3.82542 5.22693 3.82542 5.73422V32.5121C3.82542 33.0194 4.02693 33.5059 4.38563 33.8646C4.74434 34.2233 5.23084 34.4248 5.73812 34.4248H28.6906C29.1979 34.4248 29.6844 34.2233 30.0431 33.8646C30.4018 33.5059 30.6033 33.0194 30.6033 32.5121V15.2978H24.8652C23.3434 15.2978 21.8838 14.6932 20.8077 13.6171C19.7316 12.541 19.1271 11.0815 19.1271 9.55963V3.82151H5.73812ZM22.9525 4.61378V9.55963C22.9525 10.0669 23.154 10.5534 23.5127 10.9121C23.8714 11.2708 24.3579 11.4723 24.8652 11.4723H29.8111L22.9525 4.61378ZM1.68066 1.67675C2.75676 0.600644 4.21628 -0.00390625 5.73812 -0.00390625H21.3688C22.8904 -0.00358128 24.35 0.601105 25.4258 1.67716C25.4258 1.67709 25.4259 1.67723 25.4258 1.67716L32.7475 8.9988C33.8236 10.0747 34.4284 11.5339 34.4287 13.0557V32.5121C34.4287 34.034 33.8242 35.4935 32.7481 36.5696C31.672 37.6457 30.2125 38.2502 28.6906 38.2502H5.73812C4.21628 38.2502 2.75676 37.6457 1.68066 36.5696C0.60455 35.4935 0 34.034 0 32.5121V5.73422C0 4.21237 0.60455 2.75286 1.68066 1.67675Z" fill="#4281EA"/>
</svg>
