<svg width="26" height="27" viewBox="0 0 26 27" fill="none" xmlns="http://www.w3.org/2000/svg">
<path d="M8.82359 1.17004C6.17588 2.08856 3.89249 3.83194 2.30882 6.1441C0.725159 8.45626 -0.0753076 11.2153 0.0249993 14.016C0.125306 16.8168 1.1211 19.5115 2.86611 21.7044C4.61113 23.8974 7.01338 25.473 9.72002 26.1997C11.9144 26.7659 14.2134 26.7908 16.4194 26.2722C18.4179 25.8233 20.2656 24.8631 21.7815 23.4856C23.3592 22.0081 24.5044 20.1286 25.0939 18.049C25.7345 15.7876 25.8485 13.4094 25.4272 11.097H13.1049V16.2085H20.2412C20.0986 17.0238 19.7929 17.8019 19.3426 18.4963C18.8922 19.1906 18.3064 19.787 17.6202 20.2497C16.7489 20.8264 15.7665 21.2142 14.7363 21.3884C13.7031 21.5805 12.6434 21.5805 11.6102 21.3884C10.5629 21.1721 9.57229 20.7399 8.70145 20.1193C7.30225 19.1289 6.25164 17.7218 5.69954 16.0988C5.13827 14.4455 5.13827 12.6531 5.69954 10.9997C6.09254 9.84082 6.74221 8.78563 7.60006 7.91294C8.58177 6.89591 9.82464 6.16893 11.1923 5.81176C12.56 5.4546 13.9996 5.48105 15.3533 5.88821C16.4107 6.21267 17.3778 6.77983 18.1771 7.54443C18.9818 6.74392 19.785 5.94134 20.5869 5.1367C21.001 4.70401 21.4523 4.29202 21.8601 3.84898C20.6398 2.71347 19.2074 1.82985 17.645 1.24871C14.7999 0.215625 11.6867 0.187861 8.82359 1.17004Z" fill="white"/>
<path d="M8.82406 1.17007C11.687 0.187223 14.8001 0.214256 17.6455 1.24667C19.2081 1.83176 20.6399 2.71964 21.8585 3.85936C21.4445 4.3024 21.0076 4.71646 20.5853 5.14708C19.782 5.94897 18.9795 6.74809 18.1776 7.54446C17.3782 6.77986 16.4112 6.2127 15.3537 5.88824C14.0005 5.47965 12.5609 5.45167 11.1929 5.80738C9.82487 6.16308 8.58124 6.88872 7.59845 7.90469C6.7406 8.77738 6.09093 9.83256 5.69794 10.9915L1.40625 7.66868C2.94241 4.62239 5.60218 2.29221 8.82406 1.17007Z" fill="#E33629"/>
<path d="M0.267451 10.9597C0.497955 9.81644 0.880927 8.7093 1.4061 7.66797L5.69779 10.999C5.13652 12.6524 5.13652 14.4448 5.69779 16.0981C4.26792 17.2023 2.83736 18.312 1.4061 19.4271C0.091789 16.811 -0.309054 13.8302 0.267451 10.9597Z" fill="#F8BD00"/>
<path d="M13.1054 11.0957H25.4277C25.849 13.4081 25.735 15.7862 25.0944 18.0477C24.5049 20.1272 23.3597 22.0068 21.7819 23.4842C20.3969 22.4036 19.0057 21.3312 17.6207 20.2505C18.3074 19.7873 18.8934 19.1903 19.3438 18.4952C19.7942 17.8 20.0996 17.0211 20.2417 16.2051H13.1054C13.1033 14.5034 13.1054 12.7995 13.1054 11.0957Z" fill="#587DBD"/>
<path d="M1.4043 19.4276C2.83555 18.3235 4.26611 17.2138 5.69598 16.0986C6.24918 17.7221 7.30129 19.1293 8.70203 20.1191C9.57558 20.7368 10.5684 21.1655 11.617 21.3778C12.6502 21.57 13.7099 21.57 14.7431 21.3778C15.7733 21.2037 16.7557 20.8158 17.627 20.2392C19.012 21.3199 20.4032 22.3923 21.7883 23.473C20.2726 24.8512 18.4249 25.8121 16.4262 26.2616C14.2202 26.7802 11.9212 26.7554 9.72681 26.1892C7.9913 25.7258 6.37022 24.9089 4.96518 23.7897C3.47815 22.6089 2.26353 21.121 1.4043 19.4276Z" fill="#319F43"/>
</svg>
