<svg width="12" height="12" viewBox="0 0 12 12" fill="none" xmlns="http://www.w3.org/2000/svg">
<g opacity="0.8">
<path d="M6.00045 8.23211C5.6922 8.23211 5.44231 8.482 5.44231 8.79025C5.44231 9.0985 5.6922 9.34839 6.00045 9.34839C6.30871 9.34839 6.55859 9.0985 6.55859 8.79025C6.55859 8.482 6.30871 8.23211 6.00045 8.23211Z" fill="#34526C"/>
<path d="M5.5814 7.1153C5.5814 7.22632 5.6255 7.3328 5.704 7.4113C5.78251 7.4898 5.88898 7.53391 6 7.53391C6.11102 7.53391 6.21749 7.4898 6.296 7.4113C6.3745 7.3328 6.4186 7.22632 6.4186 7.1153H5.5814ZM6.4186 3.20833C6.4186 3.09731 6.3745 2.99083 6.296 2.91233C6.21749 2.83382 6.11102 2.78972 6 2.78972C5.88898 2.78972 5.78251 2.83382 5.704 2.91233C5.6255 2.99083 5.5814 3.09731 5.5814 3.20833H6.4186ZM11.1628 5.99902C11.1628 7.36828 10.6189 8.68146 9.65064 9.64967C8.68243 10.6179 7.36926 11.1618 6 11.1618V11.999C9.31367 11.999 12 9.3127 12 5.99902H11.1628ZM6 11.1618C4.63074 11.1618 3.31757 10.6179 2.34936 9.64967C1.38114 8.68146 0.837209 7.36828 0.837209 5.99902H0C0 9.3127 2.68633 11.999 6 11.999V11.1618ZM0.837209 5.99902C0.837209 4.62977 1.38114 3.31659 2.34936 2.34838C3.31757 1.38017 4.63074 0.836233 6 0.836233V-0.000976562C2.68633 -0.000976562 0 2.68535 0 5.99902H0.837209ZM6 0.836233C7.36926 0.836233 8.68243 1.38017 9.65064 2.34838C10.6189 3.31659 11.1628 4.62977 11.1628 5.99902H12C12 2.68535 9.31367 -0.000976562 6 -0.000976562V0.836233ZM6.4186 7.1153V3.20833H5.5814V7.1153H6.4186Z" fill="#34526C"/>
</g>
</svg>
