<svg width="143" height="31" viewBox="0 0 143 31" fill="none" xmlns="http://www.w3.org/2000/svg">
<g clip-path="url(#clip0_601_1379)">
<path d="M38.9135 28.9051C38.7279 28.546 38.6351 28.0672 38.6351 27.4389V15.6792L38.7588 9.51511L38.3258 9.09619L30.4696 10.7419V11.1609L30.9026 11.2806C31.4594 11.4002 31.8614 11.5798 32.078 11.879C32.2945 12.1483 32.3873 12.6271 32.3873 13.2854L32.2017 27.4089C31.5521 27.8578 30.8717 28.2168 30.2221 28.4562C29.5726 28.6956 28.8303 28.8153 27.9952 28.8153C27.1601 28.8153 26.4487 28.6058 25.9229 28.157C25.3661 27.7381 25.0878 27.0499 25.0878 26.1223V15.6792L25.3043 9.51511L24.8712 9.09619L16.8604 10.6223V11.0412L17.3862 11.2207C17.881 11.3404 18.2522 11.5499 18.4996 11.8192C18.7471 12.1184 18.8708 12.5972 18.8708 13.2555L18.7471 24.3867C18.7162 25.9726 18.9636 27.2593 19.5203 28.2168C20.0771 29.1744 20.8194 29.8925 21.8092 30.3114C22.768 30.7304 23.8506 30.9697 25.0259 30.9697C26.5724 30.9697 27.9333 30.7004 29.0777 30.1618C30.2221 29.6232 31.3047 28.9649 32.2945 28.1869L32.6966 30.7304L40.5528 30.3114V29.9224L40.1198 29.8028C39.4702 29.5634 39.0991 29.2641 38.9135 28.9051Z" fill="#34526C"/>
<path d="M63.3173 28.9654C62.8843 28.6064 62.4513 28.1276 61.9873 27.4992L53.9764 16.6971L58.9871 12.1488C59.5439 11.6701 60.0387 11.2811 60.4408 11.0118C60.8429 10.7425 61.3687 10.5031 62.0183 10.2936L63.3483 9.93454V9.51562H56.6674V9.93454L57.4406 10.144C58.0283 10.3235 58.3067 10.5928 58.2139 10.9818C58.152 11.3708 57.9046 11.7299 57.5334 12.089L49.2441 19.5098L57.2241 30.3419H65.1113V29.923L64.9257 29.8332C64.2762 29.5938 63.7503 29.2946 63.3173 28.9654Z" fill="#34526C"/>
<path d="M49.2125 27.5589V6.40352L49.3053 1.79541H40.6758L40.583 1.82533V2.24425L41.1707 2.36394C41.7583 2.54348 42.1914 2.78286 42.4388 3.05217C42.6863 3.35139 42.81 3.77031 42.81 4.33885V27.529C42.81 28.6361 42.3151 29.3244 41.2944 29.6535L40.6139 29.863V30.2819H51.3157V29.9228L50.6971 29.7433C49.7074 29.4441 49.2125 28.7259 49.2125 27.5589Z" fill="#34526C"/>
<path d="M79.1538 10.1726C77.4835 9.3048 75.5968 8.85596 73.4626 8.85596C71.3285 8.85596 69.4417 9.3048 67.7406 10.2025C66.0394 11.1002 64.7094 12.3569 63.7506 14.0027C62.7918 15.6484 62.2969 17.5934 62.2969 19.8675C62.2969 22.1117 62.7608 24.0867 63.6578 25.7623C64.5548 27.438 65.8538 28.7247 67.5241 29.6523C69.1943 30.55 71.1738 31.0287 73.4317 31.0287C75.6896 31.0287 77.6691 30.5799 79.3393 29.6523C81.0096 28.7546 82.2777 27.4679 83.2056 25.7922C84.1026 24.1166 84.5665 22.1716 84.5665 19.8675C84.5665 17.5934 84.0717 15.6185 83.1128 13.9728C82.154 12.2971 80.824 11.0403 79.1538 10.1726ZM77.3289 26.1812C77.0505 27.6475 76.5866 28.6948 75.968 29.2633C75.3494 29.8318 74.5143 30.1311 73.4626 30.1311C72.411 30.1311 71.5759 29.8318 70.9264 29.2633C70.2768 28.6948 69.8129 27.6475 69.5345 26.1812C69.2561 24.715 69.1015 22.6204 69.1015 19.9274C69.1015 17.2044 69.2561 15.1098 69.5345 13.6436C69.8129 12.1774 70.2768 11.1301 70.9264 10.5616C71.5759 9.99302 72.411 9.6938 73.4626 9.6938C74.5143 9.6938 75.3494 9.99302 75.968 10.5616C76.5866 11.1301 77.0505 12.1774 77.3289 13.6436C77.6073 15.1098 77.7619 17.2044 77.7619 19.9274C77.7619 22.6204 77.6073 24.715 77.3289 26.1812Z" fill="#34526C"/>
<path d="M102.041 10.1726C100.371 9.3048 98.4845 8.85596 96.3503 8.85596C94.2162 8.85596 92.3294 9.3048 90.6283 10.2025C88.9271 11.1002 87.5971 12.3569 86.6383 14.0027C85.6795 15.6484 85.1846 17.5934 85.1846 19.8675C85.1846 22.1117 85.6485 24.0867 86.5455 25.7623C87.4425 27.438 88.7415 28.7247 90.4118 29.6523C92.082 30.55 94.0615 31.0287 96.3194 31.0287C98.5773 31.0287 100.557 30.5799 102.227 29.6523C103.897 28.7546 105.165 27.4679 106.093 25.7922C106.99 24.1166 107.454 22.1716 107.454 19.8675C107.454 17.5934 106.959 15.6185 106.001 13.9728C105.042 12.2971 103.712 11.0403 102.041 10.1726ZM100.217 26.1812C99.9382 27.6475 99.4743 28.6948 98.8557 29.2633C98.2371 29.8318 97.402 30.1311 96.3503 30.1311C95.2987 30.1311 94.4636 29.8318 93.8141 29.2633C93.1645 28.6948 92.7006 27.6475 92.4222 26.1812C92.1438 24.715 91.9892 22.6204 91.9892 19.9274C91.9892 17.2044 92.1438 15.1098 92.4222 13.6436C92.7006 12.1774 93.1645 11.1301 93.8141 10.5616C94.4636 9.99302 95.2987 9.6938 96.3503 9.6938C97.402 9.6938 98.2371 9.99302 98.8557 10.5616C99.4743 11.1301 99.9382 12.1774 100.217 13.6436C100.495 15.1098 100.65 17.2044 100.65 19.9274C100.65 22.6204 100.526 24.715 100.217 26.1812Z" fill="#34526C"/>
<path d="M129.693 27.6475V15.1697C129.693 13.0451 129.167 11.4293 128.116 10.4119C127.064 9.36464 125.548 8.85596 123.569 8.85596C122.27 8.85596 120.971 9.15518 119.672 9.72372C118.342 10.2923 117.166 11.0403 116.146 11.938L115.775 9.33472L115.342 8.9158L107.671 11.4293V11.8482L108.351 12.0278C108.939 12.1475 109.341 12.3569 109.558 12.6561C109.774 12.9554 109.867 13.4341 109.867 14.0625V27.6175C109.867 28.7546 109.341 29.4428 108.289 29.7421L107.671 29.9216V30.3405H118.187V29.9216L117.785 29.8019C116.733 29.5027 116.208 28.8145 116.208 27.6774V12.9255C117.754 11.6687 119.208 11.0104 120.507 11.0104C122.425 11.0104 123.383 11.938 123.383 13.7932V27.6175C123.383 28.7247 122.858 29.4129 121.806 29.7421L121.218 29.9216V30.3405H131.796V29.9216L131.394 29.8019C130.25 29.5027 129.693 28.7845 129.693 27.6475Z" fill="#34526C"/>
<path d="M141.88 29.7723C141.323 29.5928 140.921 29.3534 140.704 28.9943C140.488 28.6353 140.364 28.1864 140.364 27.6179V15.4692L140.488 9.30515L140.055 8.88623L131.858 11.4297V11.8486L132.477 11.9683C133.065 12.088 133.498 12.2974 133.714 12.5967C133.931 12.8959 134.054 13.3447 134.054 13.9731V27.5281C134.054 28.0967 133.931 28.5754 133.714 28.9046C133.498 29.2636 133.065 29.503 132.477 29.6826L131.858 29.8621V30.281H142.344V29.9219L141.88 29.7723Z" fill="#34526C"/>
<path d="M5.57126 13.4054C3.77731 11.9691 3.65359 10.862 5.04545 9.12646C4.48871 9.39577 3.9629 9.66507 3.37522 9.9643C-0.0889449 11.7297 -0.800337 17.0859 2.3236 19.3301C5.29289 21.4546 7.98381 23.9382 10.8912 26.1824C12.2831 27.2597 12.9326 28.3967 11.7263 30.1023C16.1184 28.9353 17.7577 23.9981 14.7575 21.0657C11.9119 18.3128 8.66427 15.9189 5.57126 13.4054Z" fill="#34526C"/>
<path d="M3.68484 23.8188C1.67438 23.8787 0.40625 25.1653 0.40625 27.1103C0.40625 28.9955 1.82903 30.4018 3.68484 30.4018C5.54064 30.3719 7.05622 28.8159 7.05622 26.9009C7.05622 25.2551 5.41692 23.7889 3.68484 23.8188Z" fill="#EDA92A"/>
<path d="M15.0047 12.5671C15.1593 10.4126 14.0768 9.1858 11.8498 9.15588C10.3961 9.12595 8.91145 9.15588 7.14844 9.15588C9.90121 11.3702 12.4066 13.375 15.0047 15.4696C15.0047 14.3924 14.9428 13.4648 15.0047 12.5671Z" fill="#34526C"/>
<path d="M137.148 6.58301C138.169 6.58301 139.004 6.28378 139.715 5.65541C140.396 5.02703 140.736 4.24903 140.736 3.29151C140.736 2.30405 140.396 1.52606 139.715 0.897683C139.035 0.299228 138.169 0 137.148 0C136.127 0 135.261 0.299228 134.581 0.897683C133.87 1.49614 133.529 2.30405 133.529 3.29151C133.529 4.24903 133.87 5.02703 134.581 5.65541C135.261 6.28378 136.127 6.58301 137.148 6.58301Z" fill="#EDA92A"/>
</g>
<defs>
<clipPath id="clip0_601_1379">
<rect width="142" height="31" fill="white" transform="translate(0.34375)"/>
</clipPath>
</defs>
</svg>
