<svg width="21" height="14" viewBox="0 0 21 14" fill="none" xmlns="http://www.w3.org/2000/svg">
<path d="M7.66211 2.16797H13.2501V12.2086H7.66211V2.16797Z" fill="#FF5F00"/>
<path d="M8.01723 7.18707C8.01723 5.14703 8.97515 3.33755 10.4475 2.1667C9.36546 1.31521 7.99954 0.800781 6.50941 0.800781C2.97909 0.800781 0.123047 3.65683 0.123047 7.18707C0.123047 10.7172 2.97909 13.5734 6.50933 13.5734C7.99946 13.5734 9.36538 13.0589 10.4475 12.2073C8.97515 11.0543 8.01723 9.2271 8.01723 7.18707Z" fill="#EB001B"/>
<path d="M20.7903 7.18707C20.7903 10.7172 17.9342 13.5734 14.404 13.5734C12.9139 13.5734 11.5479 13.0589 10.4658 12.2073C11.9559 11.0366 12.8962 9.2271 12.8962 7.18707C12.8962 5.14703 11.9382 3.33755 10.4658 2.1667C11.5479 1.31521 12.9139 0.800781 14.404 0.800781C17.9342 0.800781 20.7903 3.67461 20.7903 7.18707Z" fill="#F79E1B"/>
</svg>
