<svg width="32" height="32" viewBox="0 0 32 32" fill="none" xmlns="http://www.w3.org/2000/svg">
<circle cx="15.7817" cy="15.772" r="15.3032" fill="white"/>
<path d="M17.1165 20.4263C16.94 20.2498 16.8553 20.0365 16.8623 19.7865C16.8694 19.5364 16.9615 19.3231 17.1386 19.1466L19.6316 16.6536H9.79169C9.54165 16.6536 9.3319 16.5688 9.16246 16.3994C8.99302 16.23 8.90859 16.0205 8.90918 15.771C8.90918 15.521 8.9939 15.3113 9.16334 15.1418C9.33279 14.9724 9.54223 14.888 9.79169 14.8885H19.6316L17.1165 12.3734C16.94 12.1969 16.8517 11.9872 16.8517 11.7442C16.8517 11.5012 16.94 11.2917 17.1165 11.1158C17.293 10.9393 17.5027 10.8511 17.7457 10.8511C17.9887 10.8511 18.1982 10.9393 18.3741 11.1158L22.4115 15.1533C22.4998 15.2415 22.5624 15.3371 22.5995 15.4401C22.6366 15.5431 22.6548 15.6534 22.6542 15.771C22.6542 15.8887 22.6357 15.999 22.5986 16.102C22.5616 16.2049 22.4992 16.3006 22.4115 16.3888L18.352 20.4483C18.1902 20.6101 17.9881 20.691 17.7457 20.691C17.5033 20.691 17.2936 20.6028 17.1165 20.4263Z" fill="#4281EA"/>
</svg>
