<svg width="25" height="30" viewBox="0 0 25 30" fill="none" xmlns="http://www.w3.org/2000/svg">
<path d="M9.38974 16.7568C9.5486 16.7568 13.2342 16.9157 15.4264 16.3756H15.4423C17.9682 15.756 21.479 13.9768 22.3845 8.1625C22.3845 8.1625 24.402 0.886719 14.3938 0.886719H5.79951C5.02109 0.886719 4.35388 1.45861 4.2268 2.22114L0.573018 25.3511C0.493588 25.8277 0.874852 26.2725 1.35143 26.2725H6.80033L8.13475 17.8212C8.23007 17.2175 8.7543 16.7568 9.38974 16.7568Z" fill="#243779"/>
<path d="M23.7817 9.28906C22.4949 15.2145 18.444 18.3441 11.9943 18.3441H9.65902L8.02277 28.7017C7.95922 29.1148 8.27694 29.4802 8.68998 29.4802H11.7083C12.2484 29.4802 12.725 29.083 12.8044 28.5429C12.9315 27.9074 13.6305 23.2687 13.7735 22.4744C13.8529 21.9343 14.3295 21.5372 14.8696 21.5372H15.5686C20.0485 21.5372 23.5593 19.7103 24.5919 14.452C25.0049 12.3233 24.7825 10.5758 23.7817 9.28906Z" fill="#179AD6"/>
</svg>
