<svg width="32" height="32" viewBox="0 0 32 32" fill="none" xmlns="http://www.w3.org/2000/svg">
<g clip-path="url(#clip0_7336_49621)">
<path d="M16.2183 31.0752C7.76657 31.0752 0.9151 24.2237 0.9151 15.772C0.9151 7.32029 7.76657 0.468811 16.2183 0.468811C24.67 0.468811 31.5215 7.32029 31.5215 15.772C31.5215 24.2237 24.67 31.0752 16.2183 31.0752Z" fill="white"/>
<path d="M14.8835 20.4263C15.06 20.2498 15.1447 20.0365 15.1377 19.7865C15.1306 19.5364 15.0385 19.3231 14.8614 19.1466L12.3684 16.6536H22.2083C22.4583 16.6536 22.6681 16.5688 22.8375 16.3994C23.007 16.23 23.0914 16.0205 23.0908 15.771C23.0908 15.521 23.0061 15.3113 22.8367 15.1418C22.6672 14.9724 22.4578 14.888 22.2083 14.8885H12.3684L14.8835 12.3734C15.06 12.1969 15.1483 11.9872 15.1483 11.7442C15.1483 11.5012 15.06 11.2917 14.8835 11.1158C14.707 10.9393 14.4973 10.8511 14.2543 10.8511C14.0113 10.8511 13.8018 10.9393 13.6259 11.1158L9.5885 15.1533C9.5002 15.2415 9.4376 15.3371 9.4005 15.4401C9.3634 15.5431 9.3452 15.6534 9.3458 15.771C9.3458 15.8887 9.3643 15.999 9.4014 16.102C9.4384 16.2049 9.5008 16.3006 9.5885 16.3888L13.648 20.4483C13.8098 20.6101 14.0119 20.691 14.2543 20.691C14.4967 20.691 14.7064 20.6028 14.8835 20.4263Z" fill="#4281EA"/>
</g>
<defs>
<clipPath id="clip0_7336_49621">
<rect width="32" height="32" fill="white" transform="matrix(-1 0 0 1 32 0)"/>
</clipPath>
</defs>
</svg>
