<svg width="47" height="47" viewBox="0 0 47 47" fill="none" xmlns="http://www.w3.org/2000/svg">
<circle cx="23.5642" cy="23.7234" r="23.0789" fill="#62C554"/>
<path d="M31.6102 20.4014L22.4118 29.5999C22.0668 29.9444 21.5993 30.1379 21.1117 30.1379C20.6242 30.1379 20.1566 29.9444 19.8117 29.5999L15.5191 25.3072C15.1943 24.9583 15.0174 24.497 15.0257 24.0204C15.0339 23.5437 15.2266 23.0888 15.5632 22.7513C15.9008 22.4147 16.3557 22.222 16.8323 22.2137C17.3089 22.2055 17.7702 22.3824 18.1192 22.7071L21.1117 25.6997L29.0101 17.8013C29.3591 17.4765 29.8204 17.2997 30.297 17.3079C30.7737 17.3161 31.2285 17.5088 31.5661 17.8455C31.9027 18.183 32.0954 18.6379 32.1037 19.1145C32.1119 19.5912 31.935 20.0524 31.6102 20.4014Z" fill="white"/>
</svg>
