<svg width="46" height="45" viewBox="0 0 46 45" fill="none" xmlns="http://www.w3.org/2000/svg">
<circle cx="23.0698" cy="22.7651" r="22.1713" fill="#4281EA"/>
<path d="M25.0021 29.5073C24.7464 29.2516 24.6236 28.9426 24.6339 28.5803C24.6441 28.2181 24.7775 27.9091 25.0341 27.6534L28.646 24.0414H14.3899C14.0276 24.0414 13.7238 23.9187 13.4783 23.6732C13.2328 23.4277 13.1105 23.1242 13.1113 22.7628C13.1113 22.4006 13.2341 22.0967 13.4796 21.8512C13.725 21.6057 14.0285 21.4834 14.3899 21.4843H28.646L25.0021 17.8403C24.7464 17.5846 24.6185 17.2807 24.6185 16.9287C24.6185 16.5766 24.7464 16.2732 25.0021 16.0183C25.2578 15.7626 25.5617 15.6348 25.9137 15.6348C26.2658 15.6348 26.5692 15.7626 26.8241 16.0183L32.6735 21.8678C32.8014 21.9957 32.8922 22.1342 32.9459 22.2834C32.9996 22.4325 33.026 22.5924 33.0252 22.7628C33.0252 22.9333 32.9983 23.0931 32.9446 23.2423C32.8909 23.3915 32.8006 23.53 32.6735 23.6578L26.7921 29.5393C26.5577 29.7737 26.2649 29.8909 25.9137 29.8909C25.5625 29.8909 25.2587 29.763 25.0021 29.5073Z" fill="white"/>
</svg>
