<svg width="88" height="85" viewBox="0 0 88 85" fill="none" xmlns="http://www.w3.org/2000/svg">
<path d="M84.1178 33.9409C81.3876 33.9409 78.8281 34.0097 76.3026 33.8721C75.859 33.8377 75.2788 33.1152 75.1082 32.5992C72.0367 22.8977 65.962 15.9141 56.8499 11.545C56.6111 11.4073 56.338 11.3041 56.065 11.2353C55.9626 11.2009 55.8602 11.2697 55.7579 11.2697C55.5872 12.5082 55.519 13.7811 55.2459 14.9852C54.4269 18.391 51.3895 20.9712 47.9085 21.1088C44.9736 21.212 42.0045 21.1432 38.7965 21.1432C38.7965 23.6546 38.7965 25.9595 38.7965 28.2989C38.7965 32.5992 37.4314 33.9753 33.1996 33.9753C30.9472 33.9753 28.6606 33.9753 26.3058 33.9753C26.3058 36.8651 26.3058 39.5828 26.3058 42.4726C29.036 42.4726 31.6638 42.4726 34.4282 42.4726C34.4282 46.7385 34.4282 50.8324 34.4282 55.1327C32.3464 55.2015 30.5035 55.5799 28.6606 53.619C23.1661 47.7706 17.3644 42.163 11.7334 36.4178C11.3238 36.005 11.0849 35.489 10.6413 34.8353C7.91108 41.5782 9.24206 54.5822 16.716 63.7332C23.4732 72.0242 32.2781 76.1181 42.8918 76.5653C42.8918 79.3175 42.8918 82.0009 42.8918 84.8563C34.3258 84.9595 26.5788 82.5169 19.5486 77.735C10.1294 71.3362 4.02055 62.4604 1.80226 51.2452C-3.11211 26.7852 12.45 5.35254 34.3599 0.914646C59.8532 -4.2457 80.1932 13.4027 84.1178 33.9409Z" fill="white"/>
<path d="M87.1553 76.669C85.0394 78.7676 83.1282 80.6597 81.1147 82.655C77.19 78.6644 73.1289 74.6049 69.1701 70.511C68.2145 69.5133 67.532 69.2725 66.201 69.9606C59.4779 73.2976 52.8571 72.9536 46.7142 68.5845C40.6053 64.2498 38.1482 58.0574 38.8648 50.6609C39.8545 40.581 49.2055 33.1845 59.3413 34.0102C67.2589 34.6638 74.3575 40.6498 76.1662 48.7C77.1218 53.0002 76.5757 57.0941 74.767 61.0504C74.4598 61.7384 74.1186 62.3921 73.6408 63.3897C75.8249 65.5227 78.1115 67.7244 80.398 69.9606C82.6504 72.2311 84.8687 74.4329 87.1553 76.669ZM68.2145 53.0346C68.2145 47.1519 63.539 42.4731 57.7032 42.4731C51.9015 42.4731 47.1919 47.1519 47.1578 53.0346C47.1237 58.9174 52.0039 63.837 57.7715 63.7338C63.6073 63.5961 68.2145 58.883 68.2145 53.0346Z" fill="white"/>
</svg>
