<svg width="90" height="91" viewBox="0 0 90 91" fill="none" xmlns="http://www.w3.org/2000/svg">
<g clip-path="url(#clip0_601_923)">
<path d="M45.0536 0.849609C58.7376 0.849609 72.4573 0.849609 86.1413 0.849609C89.1068 0.849609 90 1.74247 90 4.63532C90 14.3853 90 24.171 90 33.921C90 36.7068 89.1068 37.5996 86.2485 37.5996C83.3902 37.5996 80.532 37.5639 77.6737 37.6353C77.102 37.671 76.316 38.0639 75.9587 38.5282C74.3867 40.5996 72.9575 42.8139 71.4212 44.921C69.8849 47.0282 68.0627 46.9925 66.5264 44.8853C65.0258 42.8139 63.5967 40.671 62.0603 38.671C61.6673 38.171 60.8456 37.671 60.2382 37.671C50.127 37.5996 39.9801 37.5996 29.869 37.671C29.2259 37.671 28.4399 38.1353 28.0111 38.6353C26.5462 40.5282 25.26 42.4925 23.8666 44.4568C21.973 47.171 20.258 47.2068 18.3287 44.5282C16.971 42.6353 15.5776 40.7782 14.3271 38.8496C13.684 37.8496 12.9694 37.5639 11.8618 37.5996C9.00357 37.671 6.1453 37.6353 3.28702 37.6353C1.03613 37.6353 0 36.5996 0 34.3853C0 24.2782 0 14.2068 0 4.17104C0 1.84961 1.03613 0.849609 3.42993 0.849609C17.3283 0.849609 31.1909 0.849609 45.0536 0.849609ZM5.395 32.2782C8.36046 32.2782 11.1473 32.3496 13.8984 32.2425C15.5062 32.2068 16.578 32.7425 17.4712 34.0996C18.5431 35.7782 19.7578 37.3853 21.0441 39.171C22.3303 37.3853 23.5451 35.7782 24.6169 34.0996C25.4744 32.7425 26.582 32.2425 28.1898 32.2425C39.3728 32.2782 50.5915 32.2782 61.7745 32.2425C63.3466 32.2425 64.4899 32.7068 65.3474 34.0639C66.4549 35.7782 67.7054 37.3853 68.9559 39.171C70.135 37.4568 71.2426 36.0639 72.1715 34.5282C73.2076 32.8139 74.5653 32.0996 76.6018 32.2068C79.2457 32.3496 81.8896 32.2425 84.5335 32.2425C84.5335 23.421 84.5335 14.8496 84.5335 6.3139C58.0945 6.3139 31.7626 6.3139 5.395 6.3139C5.395 14.9925 5.395 23.4925 5.395 32.2782Z" fill="white"/>
<path d="M12.6833 69.5993C8.28867 62.8493 8.46731 56.9565 13.4336 52.6708C17.8282 48.8493 24.1164 48.8136 28.6182 52.5993C33.6559 56.8136 33.8702 62.5636 29.2613 69.9922C32.3697 72.0993 35.1207 74.7422 35.9425 78.4565C36.6571 81.7779 36.6928 85.2779 36.7643 88.6708C36.8 90.0279 35.5495 90.8136 34.1203 90.8136C25.4383 90.8493 16.7206 90.8493 8.03857 90.8136C6.71662 90.8136 5.50185 90.135 5.46612 88.8136C5.28748 84.2422 4.71582 79.5636 7.5741 75.5279C9.00324 73.4208 10.8968 71.635 12.6833 69.5993ZM31.4764 85.4208C31.8695 80.635 30.4403 76.8493 26.3315 74.4922C22.5443 72.3136 18.6499 72.4922 15.0771 74.9565C11.4328 77.4565 10.218 81.0279 10.7897 85.4208C17.6495 85.4208 24.4737 85.4208 31.4764 85.4208ZM21.1152 67.6708C24.6523 67.6708 27.5106 64.8136 27.4391 61.385C27.4034 57.9208 24.5094 55.135 21.008 55.135C17.4709 55.135 14.6841 57.9565 14.7198 61.4922C14.7555 65.0279 17.5066 67.6708 21.1152 67.6708Z" fill="white"/>
<path d="M60.738 69.8854C56.129 62.8497 56.3791 56.814 61.4525 52.564C66.133 48.6711 72.6355 48.8854 77.0301 53.064C80.8531 56.7068 82.5323 63.7068 77.0659 69.8497C77.4231 70.1354 77.7447 70.4211 78.102 70.7068C82.3179 73.9211 84.7118 78.0997 84.676 83.4925C84.676 84.9925 84.676 86.4568 84.676 87.9568C84.6403 89.7068 83.7114 90.814 81.9964 90.814C73.3144 90.8497 64.5966 90.8497 55.9146 90.814C54.4855 90.814 53.2707 89.9925 53.3064 88.6354C53.3422 85.2782 53.4136 81.8497 54.0925 78.564C54.7713 75.2425 56.0575 74.0997 60.738 69.8854ZM58.5942 85.3854C65.5256 85.3854 72.3854 85.3854 79.3525 85.3854C79.817 80.9211 78.6022 77.2782 74.8507 74.814C71.0992 72.3497 67.0976 72.2782 63.3104 74.7425C59.416 77.2068 58.1298 80.8854 58.5942 85.3854ZM69.027 67.6711C72.5998 67.6354 75.3866 64.8497 75.3152 61.3497C75.2437 57.8497 72.4212 55.0997 68.884 55.1354C65.3827 55.1354 62.5244 58.064 62.5958 61.4925C62.6316 64.9925 65.4541 67.6711 69.027 67.6711Z" fill="white"/>
<path d="M36.4072 19.5279C36.4072 14.8493 40.3731 10.9207 45.0892 10.9922C49.8054 11.0636 53.6283 14.9565 53.5926 19.7065C53.5569 24.2779 49.6268 28.1707 45.0178 28.2065C40.3374 28.1707 36.4072 24.2422 36.4072 19.5279ZM48.2333 19.4922C48.1976 17.6707 46.697 16.2422 44.9106 16.2779C43.0884 16.3493 41.7308 17.8136 41.7665 19.6707C41.8022 21.4565 43.3385 22.9922 45.0892 22.9207C46.8757 22.8493 48.2691 21.3136 48.2333 19.4922Z" fill="white"/>
<path d="M60.9883 19.5639C60.9883 14.8139 64.847 10.9567 69.5988 10.9924C74.2793 11.0281 78.2094 14.9924 78.1737 19.6353C78.1022 24.2067 74.2078 28.0996 69.6346 28.171C64.9541 28.2424 60.9883 24.2781 60.9883 19.5639ZM69.6346 16.2781C67.8839 16.2424 66.3118 17.7424 66.2404 19.4924C66.2046 21.2424 67.7052 22.8496 69.4559 22.921C71.1709 22.9924 72.7429 21.421 72.8144 19.671C72.8859 17.8496 71.421 16.3496 69.6346 16.2781Z" fill="white"/>
<path d="M29.012 19.5639C29.012 24.2424 25.2248 28.0996 20.5443 28.171C15.9353 28.2424 11.8623 24.2424 11.8623 19.5639C11.8623 14.8853 15.8639 10.9567 20.5443 10.9924C25.2248 11.0639 29.012 14.8853 29.012 19.5639ZM23.7956 19.5996C23.8313 17.8853 22.2236 16.2781 20.5086 16.2781C18.7579 16.2781 17.2216 17.7781 17.1858 19.5639C17.1858 21.2781 18.7579 22.921 20.4371 22.921C22.1164 22.921 23.7599 21.2781 23.7956 19.5996Z" fill="white"/>
</g>
<defs>
<clipPath id="clip0_601_923">
<rect width="90" height="90" fill="white" transform="translate(0 0.849609)"/>
</clipPath>
</defs>
</svg>
