<svg width="34" height="33" viewBox="0 0 34 33" fill="none" xmlns="http://www.w3.org/2000/svg">
<path opacity="0.3" d="M24.4144 29.7591H26.0369V25.7029H30.0931V24.0805H26.0369V20.0243H24.4144V24.0805H20.3583V25.7029H24.4144V29.7591ZM25.2257 33.004C22.9813 33.004 21.0678 32.2128 19.4854 30.6304C17.9029 29.0479 17.1123 27.135 17.1133 24.8917C17.1133 22.6473 17.9046 20.7339 19.487 19.1514C21.0695 17.569 22.9823 16.7783 25.2257 16.7794C27.4701 16.7794 29.3835 17.5706 30.966 19.153C32.5484 20.7355 33.3391 22.6484 33.338 24.8917C33.338 27.1361 32.5468 29.0495 30.9643 30.632C29.3819 32.2144 27.469 33.0051 25.2257 33.004ZM7.37854 10.2895H23.6032V7.04456H7.37854V10.2895ZM14.9636 29.7591H4.13361C3.24125 29.7591 2.47707 29.4411 1.84106 28.8051C1.20506 28.1691 0.887593 27.4054 0.888675 26.5142V3.79962C0.888675 2.90727 1.20668 2.14309 1.84269 1.50708C2.47869 0.871071 3.24233 0.553609 4.13361 0.55469H26.8481C27.7405 0.55469 28.5047 0.872694 29.1407 1.5087C29.7767 2.14471 30.0942 2.90835 30.0931 3.79962V14.6702C29.3089 14.2916 28.5177 14.0076 27.7194 13.8184C26.9212 13.6291 26.0899 13.5344 25.2257 13.5344C24.9282 13.5344 24.6508 13.5409 24.3934 13.5539C24.1359 13.5669 23.8725 13.6009 23.6032 13.6561V13.5344H7.37854V16.7794H17.3162C16.8294 17.2391 16.3897 17.7393 15.9971 18.2801C15.6045 18.821 15.2599 19.4023 14.9636 20.0243H7.37854V23.2692H13.9901C13.936 23.5396 13.9019 23.8036 13.8879 24.061C13.8738 24.3184 13.8673 24.5953 13.8684 24.8917C13.8684 25.7841 13.9495 26.6158 14.1118 27.3871C14.274 28.1583 14.558 28.9489 14.9636 29.7591Z" fill="#4281EA"/>
</svg>
