<svg width="29" height="32" viewBox="0 0 29 32" fill="none" xmlns="http://www.w3.org/2000/svg">
<path d="M27.2617 11.3447V26.9844C27.2617 27.814 26.9322 28.6096 26.3456 29.1962C25.759 29.7828 24.9634 30.1123 24.1338 30.1123H5.36621C4.53663 30.1123 3.74103 29.7828 3.15443 29.1962C2.56783 28.6096 2.23828 27.814 2.23828 26.9844V5.08887C2.23828 4.25929 2.56783 3.46369 3.15443 2.87709C3.74103 2.29049 4.53663 1.96094 5.36621 1.96094H17.8779M27.2617 11.3447V11.0757C27.2615 10.2462 26.9319 9.45074 26.3452 8.86428L20.3584 2.87742C19.7719 2.29078 18.9764 1.96111 18.1469 1.96094H17.8779M27.2617 11.3447H21.0059C20.1763 11.3447 19.3807 11.0152 18.7941 10.4286C18.2075 9.84198 17.8779 9.04638 17.8779 8.2168V1.96094" stroke="#EDA92A" stroke-width="3.12793" stroke-linecap="round" stroke-linejoin="round"/>
</svg>
