<svg width="37" height="34" viewBox="0 0 37 34" fill="none" xmlns="http://www.w3.org/2000/svg">
<path d="M2.56738 7.99577C2.56738 6.55685 3.13899 5.17686 4.15646 4.15939C5.17393 3.14192 6.55392 2.57031 7.99284 2.57031H29.6947C31.1336 2.57031 32.5136 3.14192 33.531 4.15939C34.5485 5.17686 35.1201 6.55685 35.1201 7.99577V26.0806C35.1201 27.5195 34.5485 28.8995 33.531 29.917C32.5136 30.9345 31.1336 31.5061 29.6947 31.5061H7.99284C6.55392 31.5061 5.17393 30.9345 4.15646 29.917C3.13899 28.8995 2.56738 27.5195 2.56738 26.0806V7.99577Z" stroke="#EDA92A" stroke-width="3.61697" stroke-linecap="round" stroke-linejoin="round"/>
<path d="M24.2692 9.8042H27.8861M24.2692 17.0381H27.8861M9.80127 24.2721H27.8861M9.80127 13.4212C9.80127 14.3805 10.1823 15.3004 10.8607 15.9788C11.539 16.6571 12.459 17.0381 13.4182 17.0381C14.3775 17.0381 15.2975 16.6571 15.9758 15.9788C16.6541 15.3004 17.0352 14.3805 17.0352 13.4212C17.0352 12.4619 16.6541 11.5419 15.9758 10.8636C15.2975 10.1853 14.3775 9.8042 13.4182 9.8042C12.459 9.8042 11.539 10.1853 10.8607 10.8636C10.1823 11.5419 9.80127 12.4619 9.80127 13.4212Z" stroke="#EDA92A" stroke-width="3.61697" stroke-linecap="round" stroke-linejoin="round"/>
</svg>
