<svg width="21" height="16" viewBox="0 0 21 16" fill="none" xmlns="http://www.w3.org/2000/svg">
<path d="M16.6245 7.03602C16.6245 7.03602 16.8818 8.2962 16.9397 8.56019H15.8088L16.3508 7.08662C16.3441 7.09698 16.4623 6.77813 16.53 6.58181L16.6245 7.03602ZM20.2112 1.91114V13.8338C20.211 14.265 20.0397 14.6785 19.7348 14.9834C19.4299 15.2883 19.0164 15.4596 18.5852 15.4598H2.32716C1.89597 15.4596 1.48249 15.2883 1.17759 14.9834C0.872694 14.6785 0.701333 14.265 0.701172 13.8338V1.91114C0.701333 1.47995 0.872694 1.06647 1.17759 0.761575C1.48249 0.456679 1.89597 0.285318 2.32716 0.285156H18.5852C19.0164 0.285318 19.4299 0.456679 19.7348 0.761575C20.0397 1.06647 20.211 1.47995 20.2112 1.91114ZM5.8669 10.4197L8.00744 5.16312H6.56801L5.23711 8.75345L5.0914 8.02551L4.61707 5.60695C4.53904 5.27164 4.29883 5.17653 4.0007 5.16312H1.80955L1.78577 5.26798C2.28758 5.39108 2.76892 5.58617 3.21484 5.84716L4.42747 10.4197H5.8669ZM9.06461 10.4264L9.91814 5.16312H8.55675L7.70688 10.4264H9.06461ZM13.803 8.7059C13.8097 8.1066 13.4439 7.64934 12.6617 7.27318C12.1843 7.03236 11.8929 6.87019 11.8929 6.62266C11.8996 6.39891 12.1404 6.16846 12.6751 6.16846C13.0233 6.15864 13.3693 6.22697 13.6877 6.36843L13.8097 6.42574L13.9962 5.28749C13.607 5.13849 13.1936 5.06264 12.7769 5.06374C11.432 5.06374 10.487 5.78193 10.4803 6.80434C10.4699 7.55972 11.1576 7.97978 11.6728 8.23341C12.1977 8.49069 12.3775 8.66018 12.3775 8.88697C12.3708 9.23936 11.9508 9.40153 11.5612 9.40153C11.0192 9.40153 10.7278 9.31679 10.2839 9.12048L10.1047 9.03573L9.9151 10.2179C10.2333 10.3636 10.8229 10.4922 11.4326 10.4989C12.8616 10.502 13.7932 9.79416 13.8036 8.70407L13.803 8.7059ZM18.5852 10.4264L17.4878 5.16312H16.4343C16.1093 5.16312 15.8618 5.25822 15.7228 5.60025L13.7005 10.427H15.1296C15.1296 10.427 15.3631 9.77648 15.4143 9.63808H17.1622C17.2031 9.82464 17.325 10.427 17.325 10.427L18.5852 10.4264Z" fill="#031372"/>
</svg>
